<svg width="18" height="18" viewBox="0 0 18 18" fill="none" xmlns="http://www.w3.org/2000/svg">
    <circle cx="9" cy="9" r="9" fill="#E9983D"/>
    <path d="M13.1396 7.96462C13.3248 6.82209 12.516 6.29267 12.0623 6.00063C11.6104 5.7086 10.9188 5.49854 10.9188 5.49854L11.3606 3.71899L10.3411 3.46282L9.89935 5.24236L9.08377 5.03742L9.52554 3.25788L8.49418 3L8.0524 4.77954L5.89452 4.23817L5.63286 5.2936C5.63286 5.2936 6.69821 5.56002 6.81544 5.59076C6.93438 5.61979 6.91909 5.68127 6.9089 5.72055C6.8987 5.76154 5.56829 11.1258 5.5496 11.1975C5.53261 11.2692 5.52071 11.3102 5.42216 11.2863C5.32192 11.2607 4.29055 11.0028 4.29055 11.0028L4 12.1761L6.08822 12.6987L5.66514 14.4014L6.77806 14.6798L7.20115 12.9771L7.89439 13.1513L7.47131 14.854L8.53156 15.1204L8.95464 13.4177C8.95464 13.4177 9.2214 13.4843 9.75323 13.6175C10.2834 13.7507 12.2968 13.7763 12.7352 12.007C13.1736 10.2377 11.7225 9.48799 11.7225 9.48799C11.7225 9.48799 12.9527 9.10886 13.1396 7.96462ZM10.7234 11.247C10.5127 12.0941 9.56802 12.159 9.35393 12.1044C9.13814 12.0497 7.45771 11.6296 7.45771 11.6296L8.01842 9.36845C8.01842 9.36845 9.6037 9.76637 9.98261 9.8603C10.3598 9.95594 10.9341 10.4 10.7234 11.247ZM11.0734 7.80238C10.8492 8.70411 9.94863 8.66312 9.66487 8.5931C9.38112 8.52137 8.28009 8.24641 8.28009 8.24641L8.81361 6.09286C8.81361 6.09286 9.86197 6.35586 10.0778 6.4088C10.2935 6.46345 11.2977 6.90065 11.0734 7.80238Z" fill="white"/>
</svg>
